<?xml version="1.0" encoding="utf-8"?>
<!-- Generator: Adobe Illustrator 15.1.0, SVG Export Plug-In . SVG Version: 6.00 Build 0)  -->
<!DOCTYPE svg PUBLIC "-//W3C//DTD SVG 1.1//EN" "http://www.w3.org/Graphics/SVG/1.1/DTD/svg11.dtd">
<svg version="1.1" id="Layer_1" xmlns="http://www.w3.org/2000/svg" xmlns:xlink="http://www.w3.org/1999/xlink" x="0px" y="0px"
	 width="3442.666px" height="714.331px" viewBox="0 0 3442.666 714.331" enable-background="new 0 0 3442.666 714.331"
	 xml:space="preserve">
<rect fill-rule="evenodd" clip-rule="evenodd" fill="#49708A" width="3442.666" height="714.331"/>
<circle fill-rule="evenodd" clip-rule="evenodd" fill="#69CEF2" cx="338.097" cy="429.126" r="266.569"/>
<g>
	<path fill-rule="evenodd" clip-rule="evenodd" fill="#69CEF2" d="M415.494,13.494c7.046-1.141,13.359-1.203,20,0
		c12.507,1.702,14.421,2.297,26,6c14.984,6.234,29.792,11.6,46,18c11.174,4.412,21.999,9.582,35,13
		c43.984,11.565,89.369-12.712,129-15c0,12,0,24,0,36c-35.112,6.421-64.447,15.167-98,18c-20.186,1.705-36.118-3.059-52-8
		c-21.445-6.672-39.913-14.003-60-22c-12.745-5.074-23.74-11.704-41-10c-32.03,3.162-55.415,28.405-63,59
		c16.982,2.518,48.219-0.812,62,3c6.457,1.786,9.237,5.925,14,10c3.979,17.354,1.158,41.508,2,62
		c62.694,25.295,111.983,73.146,141,136c7.17,15.53,12.921,31.721,17,52c5.754,28.609,7.979,71.2,2,104
		c-1.417,7.774-2.76,16.102-4.5,23c-1.065,4.225-1.065,4.225-3.5,11c-0.174,0.483-1.105,2.51-2,5
		c-23.045,64.152-67.425,116.316-127,146c-31.925,15.906-86.125,27.375-105,29c-10.5,0.812-21.438,0.562-31.625-0.312
		c-11.625-1.188-9.716-1.338-13.375-1.688c-12.767-1.22-25.263-2.889-37-6c-60.62-16.071-104.975-48.446-139-90
		c-25.878-31.604-44.524-71.862-53-119c-13.021-72.414,6.916-137.885,36-185c29.629-47.998,71.081-81.09,125-104
		c1.78-24.554-5.607-58.273,9-70c17.826-7.508,48.062-2.605,72-4C328.618,53.285,362.329,23.662,415.494,13.494z"/>
</g>
<g>
	<g>
		<defs>
			<rect id="SVGID_1_" x="158.976" y="305.61" width="358.24" height="247.034"/>
		</defs>
		<clipPath id="SVGID_2_">
			<use xlink:href="#SVGID_1_"  overflow="visible"/>
		</clipPath>
		<path clip-path="url(#SVGID_2_)" fill="#FFFFFF" d="M517.216,419.553c-12.607,2.151-30.894-0.087-40.581-4.117
			c20.135-1.667,33.765-10.817,39.014-23.239c-7.251,4.468-29.792,9.332-42.221,4.696c-0.621-2.925-1.293-5.706-1.978-8.223
			c-9.465-34.84-41.933-62.912-75.924-59.519c2.737-1.112,5.521-2.146,8.329-3.088c3.724-1.343,25.694-4.925,22.239-12.672
			c-2.927-6.833-29.765,5.137-34.815,6.711c6.671-2.5,17.704-6.813,18.878-14.493c-10.215,1.401-20.247,6.239-27.995,13.271
			c2.801-3.012,4.922-6.685,5.372-10.642c-27.262,17.438-43.188,52.565-56.066,86.666c-10.114-9.824-19.105-17.554-27.141-21.86
			c-22.564-12.096-49.556-24.736-91.906-40.483c-1.302,14.027,6.926,32.693,30.623,45.085c-5.13-0.692-14.52,0.861-22.017,2.645
			c3.055,16.086,13.045,29.325,40.109,35.721c-12.365,0.813-18.767,3.647-24.554,9.703c5.631,11.182,19.394,24.333,44.101,21.629
			c-27.499,11.868-11.213,33.839,11.166,30.56c-38.154,39.466-98.324,36.541-132.874,3.557
			c90.198,123.037,286.289,72.753,315.494-45.753C496.383,435.885,509.238,428.123,517.216,419.553L517.216,419.553z"/>
	</g>
</g>
<g>
	<path fill="#FFFFFF" d="M1088.465,423.244h-104.4v120.601c0,12-3.806,21.703-11.4,29.1c-7.603,7.397-17.4,11.101-29.4,11.101
		s-21.703-3.703-29.1-11.101c-7.406-7.396-11.1-17.1-11.1-29.1V285.244c0-36.797,12.394-67.594,37.2-92.399
		c24.797-24.797,55.594-37.2,92.4-37.2h55.8c12,0,21.797,3.703,29.4,11.1c7.594,7.406,11.4,17.1,11.4,29.1
		s-3.806,21.806-11.4,29.399c-7.604,7.604-17.4,11.4-29.4,11.4h-55.8c-13.603,0-25.106,4.706-34.5,14.1
		c-9.403,9.403-14.1,20.906-14.1,34.5v57h104.4c12,0,21.797,3.703,29.4,11.101c7.594,7.406,11.4,17.1,11.4,29.1
		s-3.806,21.807-11.4,29.4C1110.262,419.447,1100.465,423.244,1088.465,423.244z"/>
	<path fill="#FFFFFF" d="M1315.26,278.644c43.2,0,79.595,14.7,109.2,44.1c29.598,29.4,44.4,65.7,44.4,108.9
		s-14.803,79.604-44.4,109.2c-29.605,29.606-66,44.399-109.2,44.399c-43.2,0-79.5-14.793-108.9-44.399
		c-29.4-29.597-44.1-66-44.1-109.2s14.7-79.5,44.1-108.9C1235.76,293.344,1272.061,278.644,1315.26,278.644z M1315.26,359.644
		c-20.006,0-37.003,7.003-51,21c-14.006,14.006-21,31.003-21,51c0,20.006,6.994,37.106,21,51.3c13.997,14.203,30.994,21.3,51,21.3
		c19.997,0,37.097-7.097,51.3-21.3c14.193-14.193,21.301-31.294,21.301-51.3c0-19.997-7.107-36.994-21.301-51
		C1352.357,366.647,1335.257,359.644,1315.26,359.644z"/>
	<path fill="#FFFFFF" d="M1582.857,197.044v346.8c0,12-3.807,21.703-11.4,29.1c-7.604,7.397-17.4,11.101-29.4,11.101
		s-21.703-3.703-29.1-11.101c-7.406-7.396-11.1-17.1-11.1-29.1v-346.8c0-12,3.693-21.694,11.1-29.101
		c7.396-7.396,17.1-11.1,29.1-11.1C1569.253,156.844,1582.857,170.25,1582.857,197.044z"/>
	<path fill="#FFFFFF" d="M1696.254,197.044v346.8c0,12-3.807,21.703-11.4,29.1c-7.604,7.397-17.4,11.101-29.4,11.101
		s-21.703-3.703-29.1-11.101c-7.406-7.396-11.1-17.1-11.1-29.1v-346.8c0-12,3.693-21.694,11.1-29.101
		c7.396-7.396,17.1-11.1,29.1-11.1C1682.651,156.844,1696.254,170.25,1696.254,197.044z"/>
	<path fill="#FFFFFF" d="M1881.652,278.644c43.199,0,79.594,14.7,109.199,44.1c29.598,29.4,44.4,65.7,44.4,108.9
		s-14.803,79.604-44.4,109.2c-29.605,29.606-66,44.399-109.199,44.399c-43.2,0-79.5-14.793-108.9-44.399
		c-29.4-29.597-44.1-66-44.1-109.2s14.699-79.5,44.1-108.9C1802.152,293.344,1838.452,278.644,1881.652,278.644z M1881.652,359.644
		c-20.007,0-37.004,7.003-51,21c-14.007,14.006-21,31.003-21,51c0,20.006,6.993,37.106,21,51.3c13.996,14.203,30.993,21.3,51,21.3
		c19.996,0,37.097-7.097,51.3-21.3c14.193-14.193,21.3-31.294,21.3-51.3c0-19.997-7.106-36.994-21.3-51
		C1918.749,366.647,1901.648,359.644,1881.652,359.644z"/>
	<path fill="#FFFFFF" d="M2327.448,483.244c9.601,12.403,22.397,18.601,38.4,18.601c13.594,0,24.994-4.697,34.2-14.101
		c9.196-9.394,13.8-20.896,13.8-34.5v-135.6c0-12,3.797-21.693,11.4-29.1c7.594-7.397,17.399-11.101,29.399-11.101
		s21.694,3.703,29.101,11.101c7.396,7.406,11.1,17.1,11.1,29.1v135.6c0,36.403-12.403,67.106-37.2,92.101
		c-24.806,25.003-55.406,37.5-91.8,37.5c-32.006,0-60-10.2-84-30.601c-24.403,20.4-52.406,30.601-84,30.601
		c-36.807,0-67.604-12.394-92.4-37.2c-24.806-24.797-37.199-55.594-37.199-92.4v-135.6c0-26.794,13.594-40.2,40.8-40.2
		c12,0,21.693,3.703,29.1,11.101c7.397,7.406,11.101,17.1,11.101,29.1v135.6c0,13.604,4.696,25.106,14.1,34.5
		c9.394,9.403,20.896,14.101,34.5,14.101c13.594,0,25.097-4.697,34.5-14.101c9.394-9.394,14.1-20.896,14.1-34.5v-135.6
		c0-12,3.694-21.693,11.101-29.1c7.396-7.397,17.1-11.101,29.1-11.101c27.197,0,40.8,13.406,40.8,40.2V483.244z"/>
	<path fill="#FFFFFF" d="M2680.843,585.244c-43.2,0-79.5-14.793-108.9-44.399c-29.4-29.597-44.1-66-44.1-109.2
		s14.699-79.5,44.1-108.9c29.4-29.399,65.7-44.1,108.9-44.1c43.199,0,79.594,14.7,109.199,44.1c29.598,29.4,44.4,65.7,44.4,108.9
		v112.2c0,12-3.807,21.703-11.4,29.1c-7.603,7.397-17.399,11.101-29.399,11.101s-21.703-3.703-29.101-11.101
		c-7.406-7.396-11.1-17.1-11.1-29.1v-112.2c0-19.997-7.106-36.994-21.3-51c-14.203-13.997-31.304-21-51.3-21
		c-20.007,0-37.004,7.003-51,21c-14.007,14.006-21,31.003-21,51c0,20.006,6.993,37.106,21,51.3c13.996,14.203,30.993,21.3,51,21.3
		c12,0,21.797,3.703,29.399,11.101c7.594,7.406,11.4,17.1,11.4,29.1s-3.807,21.807-11.4,29.4
		C2702.64,581.438,2692.843,585.244,2680.843,585.244z"/>
	<path fill="#FFFFFF" d="M2947.835,407.644v136.2c0,12-3.807,21.703-11.4,29.1c-7.604,7.397-17.4,11.101-29.4,11.101
		s-21.703-3.703-29.1-11.101c-7.406-7.396-11.1-17.1-11.1-29.1v-136.2c0-36.394,12.496-66.994,37.5-91.8
		c24.993-24.797,55.696-37.2,92.1-37.2c11.597,0,21.197,3.807,28.8,11.4c7.594,7.603,11.4,17.203,11.4,28.8
		c0,24.806-13.8,38.399-41.4,40.8c-13.603,1.2-24.899,6.104-33.899,14.7C2952.335,382.951,2947.835,394.05,2947.835,407.644z"/>
	<path fill="#FFFFFF" d="M3109.229,278.644h166.801c28.8,0,43.199,8.803,43.199,26.4c0,20.399-18.402,52.603-55.199,96.6
		c-14.007,16.8-43.406,50.606-88.2,101.4h81.6c12,0,21.694,3.806,29.101,11.399c7.396,7.604,11.1,17.4,11.1,29.4
		c0,11.606-3.807,21.206-11.4,28.8c-7.603,7.594-17.203,11.4-28.8,11.4h-168c-29.203,0-43.8-9-43.8-27c0-20.4,18.394-52.397,55.2-96
		c8.399-9.994,37.997-43.801,88.8-101.4h-80.4c-11.605,0-21.206-3.9-28.8-11.7c-7.603-7.8-11.399-17.493-11.399-29.1
		c0-12,3.693-21.694,11.1-29.101C3087.526,282.347,3097.229,278.644,3109.229,278.644z"/>
</g>
</svg>
