<?xml version="1.0" encoding="utf-8"?>
<!-- Generator: Adobe Illustrator 15.1.0, SVG Export Plug-In . SVG Version: 6.00 Build 0)  -->
<!DOCTYPE svg PUBLIC "-//W3C//DTD SVG 1.1//EN" "http://www.w3.org/Graphics/SVG/1.1/DTD/svg11.dtd">
<svg version="1.1" id="Layer_1" xmlns="http://www.w3.org/2000/svg" xmlns:xlink="http://www.w3.org/1999/xlink" x="0px" y="0px"
	 width="780.998px" height="781px" viewBox="-33.334 -33.334 780.998 781" enable-background="new -33.334 -33.334 780.998 781"
	 xml:space="preserve">
<rect x="-33.334" y="-33.334" fill="#49708A" width="780.998" height="781"/>
<circle fill="#69CEF2" cx="338.097" cy="429.126" r="266.569"/>
<g>
	<path fill="#69CEF2" d="M415.493,13.494c7.046-1.141,13.359-1.203,20,0c12.507,1.702,14.421,2.297,26,6
		c14.984,6.234,29.792,11.6,46,18c11.175,4.412,21.999,9.582,35,13c43.984,11.565,89.369-12.712,129-15c0,12,0,24,0,36
		c-35.111,6.421-64.446,15.167-98,18c-20.186,1.705-36.117-3.059-52-8c-21.444-6.672-39.913-14.003-60-22
		c-12.745-5.074-23.739-11.704-41-10c-32.029,3.162-55.415,28.405-63,59c16.982,2.518,48.22-0.812,62,3
		c6.457,1.786,9.237,5.925,14,10c3.979,17.354,1.158,41.508,2,62c62.694,25.295,111.983,73.146,141,136
		c7.17,15.53,12.921,31.721,17,52c5.755,28.609,7.979,71.201,2,104c-1.417,7.773-2.76,16.102-4.5,23
		c-1.064,4.225-1.064,4.225-3.5,11c-0.174,0.482-1.104,2.51-2,5c-23.045,64.152-67.425,116.316-127,146
		c-31.925,15.906-86.125,27.375-105,29c-10.5,0.812-21.438,0.562-31.625-0.312c-11.625-1.188-9.716-1.338-13.375-1.688
		c-12.767-1.219-25.263-2.889-36.999-6c-60.62-16.07-104.976-48.445-139-90c-25.878-31.604-44.524-71.861-53-119
		c-13.021-72.414,6.916-137.885,36-185c29.629-47.998,71.081-81.09,125-104c1.779-24.554-5.607-58.273,9-70
		c17.825-7.508,48.062-2.605,71.999-4C328.617,53.285,362.328,23.662,415.493,13.494z"/>
</g>
<g>
	<g>
		<g>
			<defs>
				<rect id="SVGID_1_" x="158.977" y="305.61" width="358.24" height="247.034"/>
			</defs>
			<clipPath id="SVGID_2_">
				<use xlink:href="#SVGID_1_"  overflow="visible"/>
			</clipPath>
			<path clip-path="url(#SVGID_2_)" fill="#FFFFFF" d="M517.217,419.552c-12.609,2.152-30.895-0.086-40.583-4.117
				c20.136-1.666,33.766-10.816,39.015-23.238c-7.251,4.469-29.792,9.332-42.221,4.696c-0.621-2.925-1.293-5.706-1.978-8.224
				c-9.466-34.839-41.932-62.912-75.926-59.519c2.739-1.112,5.522-2.146,8.331-3.088c3.722-1.343,25.694-4.925,22.24-12.672
				c-2.93-6.833-29.766,5.137-34.817,6.711c6.67-2.5,17.704-6.813,18.879-14.493c-10.215,1.401-20.248,6.239-27.995,13.271
				c2.801-3.012,4.923-6.685,5.371-10.642c-27.26,17.438-43.186,52.564-56.064,86.666c-10.115-9.824-19.105-17.554-27.14-21.859
				c-22.565-12.096-49.557-24.736-91.908-40.483c-1.301,14.027,6.928,32.692,30.625,45.085c-5.129-0.691-14.521,0.861-22.017,2.645
				c3.054,16.086,13.043,29.326,40.109,35.721c-12.367,0.814-18.768,3.648-24.553,9.703c5.63,11.184,19.392,24.334,44.098,21.629
				c-27.497,11.869-11.213,33.84,11.166,30.561c-38.154,39.467-98.323,36.541-132.872,3.557
				c90.196,123.037,286.287,72.754,315.495-45.752C496.383,435.884,509.238,428.123,517.217,419.552L517.217,419.552z"/>
		</g>
	</g>
</g>
</svg>
